<?xml version="1.0" encoding="UTF-8" standalone="no"?>
<!DOCTYPE svg PUBLIC "-//W3C//DTD SVG 1.1//EN"
 "http://www.w3.org/Graphics/SVG/1.1/DTD/svg11.dtd">
<!-- Generated by graphviz version 2.43.0 (0)
 -->
<!-- Title: SoS2Prep Pages: 1 -->
<svg width="648pt" height="855pt"
 viewBox="0.00 0.00 648.00 854.73" xmlns="http://www.w3.org/2000/svg" xmlns:xlink="http://www.w3.org/1999/xlink">
<g id="graph0" class="graph" transform="scale(0.61 0.61) rotate(0) translate(21.6 1387.6)">
<title>SoS2Prep</title>
<polygon fill="white" stroke="transparent" points="-21.6,21.6 -21.6,-1387.6 1046.76,-1387.6 1046.76,21.6 -21.6,21.6"/>
<!-- title -->
<g id="node1" class="node">
<title>title</title>
<text text-anchor="start" x="486.72" y="-1335.6" font-family="Noto Sans CJK SC, Helvetica, sans-serif" font-weight="bold" font-size="28.00" fill="#b8860b">钢铁风暴+ + 2×早有准备+ 无限循环</text>
<text text-anchor="start" x="527.22" y="-1309.2" font-family="Noto Sans CJK SC, Helvetica, sans-serif" font-size="16.00" fill="#666666">5张卡 · Guaranteed Infinite Combo · 对抗任意洗牌</text>
</g>
<!-- anchor -->
<g id="node2" class="node">
<title>anchor</title>
<path fill="#d1fae5" stroke="#16a34a" stroke-width="2" d="M934.72,-1268C934.72,-1268 476.72,-1268 476.72,-1268 470.72,-1268 464.72,-1262 464.72,-1256 464.72,-1256 464.72,-1190 464.72,-1190 464.72,-1184 470.72,-1178 476.72,-1178 476.72,-1178 934.72,-1178 934.72,-1178 940.72,-1178 946.72,-1184 946.72,-1190 946.72,-1190 946.72,-1256 946.72,-1256 946.72,-1262 940.72,-1268 934.72,-1268"/>
<text text-anchor="start" x="652.22" y="-1242" font-family="Noto Sans CJK SC, Helvetica, sans-serif" font-weight="bold" font-size="20.00" fill="#2d6a4f">🃏 锚定状态</text>
<text text-anchor="start" x="482.72" y="-1213.4" font-family="Noto Sans CJK SC, Helvetica, sans-serif" font-size="17.00" fill="#333333">手牌：钢铁风暴+、战术大师+、本能反应+、准备+、准备+</text>
<text text-anchor="start" x="574.72" y="-1194.4" font-family="Noto Sans CJK SC, Helvetica, sans-serif" font-size="17.00" fill="#333333">费用：3 · 抽牌堆：∅ · 弃牌堆：∅</text>
</g>
<!-- title&#45;&gt;anchor -->
<!-- step1 -->
<g id="node3" class="node">
<title>step1</title>
<path fill="#ede9fe" stroke="#7c3aed" stroke-width="2" d="M692.22,-1151C692.22,-1151 405.22,-1151 405.22,-1151 399.22,-1151 393.22,-1145 393.22,-1139 393.22,-1139 393.22,-1047 393.22,-1047 393.22,-1041 399.22,-1035 405.22,-1035 405.22,-1035 692.22,-1035 692.22,-1035 698.22,-1035 704.22,-1041 704.22,-1047 704.22,-1047 704.22,-1139 704.22,-1139 704.22,-1145 698.22,-1151 692.22,-1151"/>
<text text-anchor="start" x="410.72" y="-1126.8" font-family="Noto Sans CJK SC, Helvetica, sans-serif" font-weight="bold" font-size="19.00" fill="#5b21b6">① 打出钢铁风暴+</text>
<text text-anchor="start" x="557.72" y="-1126.8" font-family="Noto Sans CJK SC, Helvetica, sans-serif" font-size="16.00" fill="#666666"> (−1费 → 剩余4费)</text>
<text text-anchor="start" x="410.72" y="-1100.4" font-family="Noto Sans CJK SC, Helvetica, sans-serif" font-size="17.00" fill="#333333">弃掉全部4张手牌 → 生成4把匕首</text>
<text text-anchor="start" x="410.72" y="-1075.4" font-family="Noto Sans CJK SC, Helvetica, sans-serif" font-size="17.00" fill="#92400e">⚡ 战术大师+ 弃牌触发：+2费</text>
<text text-anchor="start" x="410.72" y="-1050.4" font-family="Noto Sans CJK SC, Helvetica, sans-serif" font-size="17.00" fill="#92400e">⚡ 本能反应+ 弃牌触发：抽3张</text>
</g>
<!-- anchor&#45;&gt;step1 -->
<g id="edge2" class="edge">
<title>anchor&#45;&gt;step1</title>
<path fill="none" stroke="#94a3b8" stroke-width="2.5" d="M651.69,-1177.95C643.04,-1170.9 633.95,-1163.49 624.9,-1156.11"/>
<polygon fill="#94a3b8" stroke="#94a3b8" stroke-width="2.5" points="626.62,-1153.9 618.65,-1151.02 623.08,-1158.24 626.62,-1153.9"/>
</g>
<!-- branch -->
<g id="node4" class="node">
<title>branch</title>
<path fill="#dbeafe" stroke="#2563eb" stroke-width="2" d="M690.22,-1008C690.22,-1008 255.22,-1008 255.22,-1008 249.22,-1008 243.22,-1002 243.22,-996 243.22,-996 243.22,-930 243.22,-930 243.22,-924 249.22,-918 255.22,-918 255.22,-918 690.22,-918 690.22,-918 696.22,-918 702.22,-924 702.22,-930 702.22,-930 702.22,-996 702.22,-996 702.22,-1002 696.22,-1008 690.22,-1008"/>
<text text-anchor="start" x="260.72" y="-983.8" font-family="Noto Sans CJK SC, Helvetica, sans-serif" font-weight="bold" font-size="19.00" fill="#1e40af">② 从5张牌的洗牌堆抽3张</text>
<text text-anchor="start" x="473.72" y="-983.8" font-family="Noto Sans CJK SC, Helvetica, sans-serif" font-size="16.00" fill="#666666"> (对手控制顺序)</text>
<text text-anchor="start" x="260.72" y="-957.4" font-family="Noto Sans CJK SC, Helvetica, sans-serif" font-size="17.00" fill="#333333">牌堆：{钢铁风暴+, 战术大师+, 本能反应+, 准备+, 准备+}</text>
<text text-anchor="start" x="260.72" y="-934.2" font-family="Noto Sans CJK SC, Helvetica, sans-serif" font-style="italic" font-size="16.00" fill="#666666">2张牌滞留在抽牌堆</text>
</g>
<!-- step1&#45;&gt;branch -->
<g id="edge3" class="edge">
<title>step1&#45;&gt;branch</title>
<path fill="none" stroke="#94a3b8" stroke-width="2.5" d="M514.72,-1034.74C510.83,-1028.19 506.89,-1021.54 503.05,-1015.08"/>
<polygon fill="#94a3b8" stroke="#94a3b8" stroke-width="2.5" points="505.43,-1013.6 498.94,-1008.15 500.61,-1016.46 505.43,-1013.6"/>
</g>
<!-- decision -->
<g id="node5" class="node">
<title>decision</title>
<path fill="#fefce8" stroke="#f6e05e" stroke-width="2.5" d="M454.83,-889.34C454.83,-889.34 242.6,-859.66 242.6,-859.66 236.66,-858.83 236.66,-857.17 242.6,-856.34 242.6,-856.34 454.83,-826.66 454.83,-826.66 460.78,-825.83 472.66,-825.83 478.6,-826.66 478.6,-826.66 690.83,-856.34 690.83,-856.34 696.78,-857.17 696.78,-858.83 690.83,-859.66 690.83,-859.66 478.6,-889.34 478.6,-889.34 472.66,-890.17 460.78,-890.17 454.83,-889.34"/>
<text text-anchor="start" x="362.72" y="-854.9" font-family="Noto Sans CJK SC, Helvetica, sans-serif" font-size="14.00"> &#160;&#160;&#160;&#160;&#160;</text>
<text text-anchor="start" x="385.72" y="-854.9" font-family="Noto Sans CJK SC, Helvetica, sans-serif" font-weight="bold" font-size="17.00" fill="#b8860b">抽到的3张中有准备+?</text>
<text text-anchor="start" x="554.72" y="-854.9" font-family="Noto Sans CJK SC, Helvetica, sans-serif" font-size="14.00"> &#160;&#160;&#160;</text>
</g>
<!-- branch&#45;&gt;decision -->
<g id="edge4" class="edge">
<title>branch&#45;&gt;decision</title>
<path fill="none" stroke="#94a3b8" stroke-width="2.5" d="M470.14,-917.72C469.78,-911.5 469.41,-905.13 469.05,-899"/>
<polygon fill="#94a3b8" stroke="#94a3b8" stroke-width="2.5" points="471.83,-898.63 468.57,-890.81 466.24,-898.95 471.83,-898.63"/>
</g>
<!-- ns_shivs -->
<g id="node6" class="node">
<title>ns_shivs</title>
<path fill="#fee2e2" stroke="#dc2626" stroke-width="2" d="M275.72,-781.5C275.72,-781.5 105.72,-781.5 105.72,-781.5 99.72,-781.5 93.72,-775.5 93.72,-769.5 93.72,-769.5 93.72,-726.5 93.72,-726.5 93.72,-720.5 99.72,-714.5 105.72,-714.5 105.72,-714.5 275.72,-714.5 275.72,-714.5 281.72,-714.5 287.72,-720.5 287.72,-726.5 287.72,-726.5 287.72,-769.5 287.72,-769.5 287.72,-775.5 281.72,-781.5 275.72,-781.5"/>
<text text-anchor="start" x="110.72" y="-757.6" font-family="Noto Sans CJK SC, Helvetica, sans-serif" font-weight="bold" font-size="18.00" fill="#991b1b">③ 打出4把匕首</text>
<text text-anchor="start" x="231.72" y="-757.6" font-family="Noto Sans CJK SC, Helvetica, sans-serif" font-size="15.00" fill="#666666"> (0费)</text>
<text text-anchor="start" x="137.22" y="-730.8" font-family="Noto Sans CJK SC, Helvetica, sans-serif" font-weight="bold" font-size="19.00" fill="#dc2626">→ 16 点伤害</text>
</g>
<!-- decision&#45;&gt;ns_shivs -->
<g id="edge5" class="edge">
<title>decision&#45;&gt;ns_shivs</title>
<path fill="none" stroke="#48bb78" stroke-width="2.5" d="M406.15,-833.3C369.63,-819.01 322.4,-800.53 281.48,-784.52"/>
<polygon fill="#48bb78" stroke="#48bb78" stroke-width="2.5" points="282.39,-781.86 273.92,-781.56 280.35,-787.08 282.39,-781.86"/>
<text text-anchor="start" x="345.72" y="-800.2" font-family="Noto Sans CJK SC, Helvetica, sans-serif" font-size="16.00" fill="#cbd5e0"> &#160;</text>
<text text-anchor="start" x="355.72" y="-800.2" font-family="Noto Sans CJK SC, Helvetica, sans-serif" font-weight="bold" font-size="16.00" fill="#166534">有 (NS)</text>
<text text-anchor="start" x="408.72" y="-800.2" font-family="Noto Sans CJK SC, Helvetica, sans-serif" font-size="16.00" fill="#cbd5e0"> &#160;</text>
</g>
<!-- ps_shivs1 -->
<g id="node9" class="node">
<title>ps_shivs1</title>
<path fill="#fee2e2" stroke="#dc2626" stroke-width="2" d="M573.72,-781.5C573.72,-781.5 403.72,-781.5 403.72,-781.5 397.72,-781.5 391.72,-775.5 391.72,-769.5 391.72,-769.5 391.72,-726.5 391.72,-726.5 391.72,-720.5 397.72,-714.5 403.72,-714.5 403.72,-714.5 573.72,-714.5 573.72,-714.5 579.72,-714.5 585.72,-720.5 585.72,-726.5 585.72,-726.5 585.72,-769.5 585.72,-769.5 585.72,-775.5 579.72,-781.5 573.72,-781.5"/>
<text text-anchor="start" x="408.72" y="-757.6" font-family="Noto Sans CJK SC, Helvetica, sans-serif" font-weight="bold" font-size="18.00" fill="#991b1b">③ 打出4把匕首</text>
<text text-anchor="start" x="529.72" y="-757.6" font-family="Noto Sans CJK SC, Helvetica, sans-serif" font-size="15.00" fill="#666666"> (0费)</text>
<text text-anchor="start" x="435.22" y="-730.8" font-family="Noto Sans CJK SC, Helvetica, sans-serif" font-weight="bold" font-size="19.00" fill="#dc2626">→ 16 点伤害</text>
</g>
<!-- decision&#45;&gt;ps_shivs1 -->
<g id="edge9" class="edge">
<title>decision&#45;&gt;ps_shivs1</title>
<path fill="none" stroke="#fc8181" stroke-width="2.5" d="M473.08,-825.76C475.37,-814.52 477.99,-801.68 480.42,-789.75"/>
<polygon fill="#fc8181" stroke="#fc8181" stroke-width="2.5" points="483.21,-790.07 482.06,-781.67 477.72,-788.95 483.21,-790.07"/>
<text text-anchor="start" x="479.72" y="-800.2" font-family="Noto Sans CJK SC, Helvetica, sans-serif" font-size="16.00" fill="#cbd5e0"> &#160;</text>
<text text-anchor="start" x="489.72" y="-800.2" font-family="Noto Sans CJK SC, Helvetica, sans-serif" font-weight="bold" font-size="16.00" fill="#dc2626">无 (PS)</text>
<text text-anchor="start" x="541.72" y="-800.2" font-family="Noto Sans CJK SC, Helvetica, sans-serif" font-size="16.00" fill="#cbd5e0"> &#160;</text>
</g>
<!-- ns_prep -->
<g id="node7" class="node">
<title>ns_prep</title>
<path fill="#ede9fe" stroke="#7c3aed" stroke-width="2" d="M296.72,-586C296.72,-586 60.72,-586 60.72,-586 54.72,-586 48.72,-580 48.72,-574 48.72,-574 48.72,-486 48.72,-486 48.72,-480 54.72,-474 60.72,-474 60.72,-474 296.72,-474 296.72,-474 302.72,-474 308.72,-480 308.72,-486 308.72,-486 308.72,-574 308.72,-574 308.72,-580 302.72,-586 296.72,-586"/>
<text text-anchor="start" x="65.72" y="-562.6" font-family="Noto Sans CJK SC, Helvetica, sans-serif" font-weight="bold" font-size="18.00" fill="#5b21b6">④ 打出准备+</text>
<text text-anchor="start" x="169.72" y="-562.6" font-family="Noto Sans CJK SC, Helvetica, sans-serif" font-size="15.00" fill="#666666"> (0费)</text>
<text text-anchor="start" x="65.72" y="-537.2" font-family="Noto Sans CJK SC, Helvetica, sans-serif" font-size="16.00" fill="#333333">抽2张（取回滞留的牌）</text>
<text text-anchor="start" x="65.72" y="-513.2" font-family="Noto Sans CJK SC, Helvetica, sans-serif" font-size="16.00" fill="#333333">弃2张：战术大师+ 和 本能反应+</text>
<text text-anchor="start" x="65.72" y="-489.2" font-family="Noto Sans CJK SC, Helvetica, sans-serif" font-size="16.00" fill="#92400e">⚡ +2费 · ⚡ 抽3张</text>
</g>
<!-- ns_shivs&#45;&gt;ns_prep -->
<g id="edge6" class="edge">
<title>ns_shivs&#45;&gt;ns_prep</title>
<path fill="none" stroke="#94a3b8" stroke-width="2.5" d="M188.9,-714.19C187.14,-682.57 184.43,-633.88 182.25,-594.64"/>
<polygon fill="#94a3b8" stroke="#94a3b8" stroke-width="2.5" points="185.04,-594.25 181.8,-586.42 179.45,-594.56 185.04,-594.25"/>
</g>
<!-- ns_draw3 -->
<g id="node8" class="node">
<title>ns_draw3</title>
<path fill="#dbeafe" stroke="#2563eb" stroke-width="2" d="M298.22,-161C298.22,-161 55.22,-161 55.22,-161 49.22,-161 43.22,-155 43.22,-149 43.22,-149 43.22,-109 43.22,-109 43.22,-103 49.22,-97 55.22,-97 55.22,-97 298.22,-97 298.22,-97 304.22,-97 310.22,-103 310.22,-109 310.22,-109 310.22,-149 310.22,-149 310.22,-155 304.22,-161 298.22,-161"/>
<text text-anchor="start" x="60.72" y="-137.6" font-family="Noto Sans CJK SC, Helvetica, sans-serif" font-weight="bold" font-size="18.00" fill="#1e40af">⑤ 从3张牌的洗牌堆抽3张</text>
<text text-anchor="start" x="60.72" y="-113.2" font-family="Noto Sans CJK SC, Helvetica, sans-serif" font-weight="bold" font-size="16.00" fill="#166534">✅ 3张全部抽回——对手无法控制</text>
</g>
<!-- ns_prep&#45;&gt;ns_draw3 -->
<g id="edge7" class="edge">
<title>ns_prep&#45;&gt;ns_draw3</title>
<path fill="none" stroke="#94a3b8" stroke-width="2.5" d="M177.6,-473.77C177.14,-446.84 176.72,-413.98 176.72,-384.5 176.72,-384.5 176.72,-384.5 176.72,-231 176.72,-210.69 176.72,-188.07 176.72,-169.4"/>
<polygon fill="#94a3b8" stroke="#94a3b8" stroke-width="2.5" points="179.52,-169.39 176.72,-161.39 173.92,-169.39 179.52,-169.39"/>
</g>
<!-- loop -->
<g id="node15" class="node">
<title>loop</title>
<path fill="#d1fae5" stroke="#16a34a" stroke-width="2" d="M763.72,-70C763.72,-70 375.72,-70 375.72,-70 369.72,-70 363.72,-64 363.72,-58 363.72,-58 363.72,-12 363.72,-12 363.72,-6 369.72,0 375.72,0 375.72,0 763.72,0 763.72,0 769.72,0 775.72,-6 775.72,-12 775.72,-12 775.72,-58 775.72,-58 775.72,-64 769.72,-70 763.72,-70"/>
<text text-anchor="start" x="494.22" y="-44" font-family="Noto Sans CJK SC, Helvetica, sans-serif" font-weight="bold" font-size="20.00" fill="#2d6a4f">🔄 回到锚定状态</text>
<text text-anchor="start" x="381.72" y="-16.2" font-family="Noto Sans CJK SC, Helvetica, sans-serif" font-size="16.00" fill="#666666">sameModAccum ✓ · dealtDamage ✓ · noEndTurn ✓</text>
</g>
<!-- ns_draw3&#45;&gt;loop -->
<g id="edge8" class="edge">
<title>ns_draw3&#45;&gt;loop</title>
<path fill="none" stroke="#94a3b8" stroke-width="2.5" d="M309.22,-96.98C343.61,-88.93 380.94,-80.19 416.31,-71.91"/>
<polygon fill="#94a3b8" stroke="#94a3b8" stroke-width="2.5" points="417.14,-74.59 424.29,-70.04 415.87,-69.14 417.14,-74.59"/>
</g>
<!-- ps_sos2 -->
<g id="node10" class="node">
<title>ps_sos2</title>
<path fill="#ede9fe" stroke="#7c3aed" stroke-width="2" d="M647.72,-687C647.72,-687 333.72,-687 333.72,-687 327.72,-687 321.72,-681 321.72,-675 321.72,-675 321.72,-611 321.72,-611 321.72,-605 327.72,-599 333.72,-599 333.72,-599 647.72,-599 647.72,-599 653.72,-599 659.72,-605 659.72,-611 659.72,-611 659.72,-675 659.72,-675 659.72,-681 653.72,-687 647.72,-687"/>
<text text-anchor="start" x="338.72" y="-663.6" font-family="Noto Sans CJK SC, Helvetica, sans-serif" font-weight="bold" font-size="18.00" fill="#5b21b6">④ 再次打出钢铁风暴+</text>
<text text-anchor="start" x="514.72" y="-663.6" font-family="Noto Sans CJK SC, Helvetica, sans-serif" font-size="15.00" fill="#666666"> (−1费)</text>
<text text-anchor="start" x="338.72" y="-638.2" font-family="Noto Sans CJK SC, Helvetica, sans-serif" font-size="16.00" fill="#333333">弃掉战术大师+和本能反应+ → 生成2把匕首</text>
<text text-anchor="start" x="338.72" y="-614.2" font-family="Noto Sans CJK SC, Helvetica, sans-serif" font-size="16.00" fill="#92400e">⚡ +2费 · ⚡ 抽3张</text>
</g>
<!-- ps_shivs1&#45;&gt;ps_sos2 -->
<g id="edge10" class="edge">
<title>ps_shivs1&#45;&gt;ps_sos2</title>
<path fill="none" stroke="#94a3b8" stroke-width="2.5" d="M489.35,-714.41C489.47,-708.36 489.59,-701.91 489.72,-695.45"/>
<polygon fill="#94a3b8" stroke="#94a3b8" stroke-width="2.5" points="492.52,-695.36 489.88,-687.31 486.92,-695.25 492.52,-695.36"/>
</g>
<!-- ps_draw -->
<g id="node11" class="node">
<title>ps_draw</title>
<path fill="#dbeafe" stroke="#2563eb" stroke-width="2" d="M636.72,-461C636.72,-461 344.72,-461 344.72,-461 338.72,-461 332.72,-455 332.72,-449 332.72,-449 332.72,-409 332.72,-409 332.72,-403 338.72,-397 344.72,-397 344.72,-397 636.72,-397 636.72,-397 642.72,-397 648.72,-403 648.72,-409 648.72,-409 648.72,-449 648.72,-449 648.72,-455 642.72,-461 636.72,-461"/>
<text text-anchor="start" x="349.72" y="-437.6" font-family="Noto Sans CJK SC, Helvetica, sans-serif" font-weight="bold" font-size="18.00" fill="#1e40af">⑤ 抽3张</text>
<text text-anchor="start" x="349.72" y="-412.2" font-family="Noto Sans CJK SC, Helvetica, sans-serif" font-size="16.00" fill="#333333">从抽牌堆取回2张准备+ + 从洗牌堆抽1张</text>
</g>
<!-- ps_sos2&#45;&gt;ps_draw -->
<g id="edge11" class="edge">
<title>ps_sos2&#45;&gt;ps_draw</title>
<path fill="none" stroke="#94a3b8" stroke-width="2.5" d="M490.72,-598.84C490.72,-560.8 490.72,-505.85 490.72,-469.08"/>
<polygon fill="#94a3b8" stroke="#94a3b8" stroke-width="2.5" points="493.52,-469.07 490.72,-461.07 487.92,-469.07 493.52,-469.07"/>
</g>
<!-- ps_shivs2 -->
<g id="node12" class="node">
<title>ps_shivs2</title>
<path fill="#fee2e2" stroke="#dc2626" stroke-width="2" d="M592.72,-370.5C592.72,-370.5 422.72,-370.5 422.72,-370.5 416.72,-370.5 410.72,-364.5 410.72,-358.5 410.72,-358.5 410.72,-315.5 410.72,-315.5 410.72,-309.5 416.72,-303.5 422.72,-303.5 422.72,-303.5 592.72,-303.5 592.72,-303.5 598.72,-303.5 604.72,-309.5 604.72,-315.5 604.72,-315.5 604.72,-358.5 604.72,-358.5 604.72,-364.5 598.72,-370.5 592.72,-370.5"/>
<text text-anchor="start" x="427.72" y="-346.6" font-family="Noto Sans CJK SC, Helvetica, sans-serif" font-weight="bold" font-size="18.00" fill="#991b1b">⑥ 打出2把匕首</text>
<text text-anchor="start" x="548.72" y="-346.6" font-family="Noto Sans CJK SC, Helvetica, sans-serif" font-size="15.00" fill="#666666"> (0费)</text>
<text text-anchor="start" x="459.22" y="-319.8" font-family="Noto Sans CJK SC, Helvetica, sans-serif" font-weight="bold" font-size="19.00" fill="#dc2626">→ 8 点伤害</text>
</g>
<!-- ps_draw&#45;&gt;ps_shivs2 -->
<g id="edge12" class="edge">
<title>ps_draw&#45;&gt;ps_shivs2</title>
<path fill="none" stroke="#94a3b8" stroke-width="2.5" d="M496.62,-396.77C497.71,-390.98 498.87,-384.85 500.01,-378.82"/>
<polygon fill="#94a3b8" stroke="#94a3b8" stroke-width="2.5" points="502.81,-379.08 501.54,-370.7 497.31,-378.04 502.81,-379.08"/>
</g>
<!-- ps_prep -->
<g id="node13" class="node">
<title>ps_prep</title>
<path fill="#ede9fe" stroke="#7c3aed" stroke-width="2" d="M700.72,-276C700.72,-276 314.72,-276 314.72,-276 308.72,-276 302.72,-270 302.72,-264 302.72,-264 302.72,-200 302.72,-200 302.72,-194 308.72,-188 314.72,-188 314.72,-188 700.72,-188 700.72,-188 706.72,-188 712.72,-194 712.72,-200 712.72,-200 712.72,-264 712.72,-264 712.72,-270 706.72,-276 700.72,-276"/>
<text text-anchor="start" x="319.72" y="-252.6" font-family="Noto Sans CJK SC, Helvetica, sans-serif" font-weight="bold" font-size="18.00" fill="#5b21b6">⑦ 打出准备+</text>
<text text-anchor="start" x="423.72" y="-252.6" font-family="Noto Sans CJK SC, Helvetica, sans-serif" font-size="15.00" fill="#666666"> (0费)</text>
<text text-anchor="start" x="319.72" y="-227.2" font-family="Noto Sans CJK SC, Helvetica, sans-serif" font-size="16.00" fill="#333333">抽2张（洗牌堆剩余）· 弃2张：战术大师+和本能反应+</text>
<text text-anchor="start" x="319.72" y="-203.2" font-family="Noto Sans CJK SC, Helvetica, sans-serif" font-size="16.00" fill="#92400e">⚡ +2费 · ⚡ 抽3张</text>
</g>
<!-- ps_shivs2&#45;&gt;ps_prep -->
<g id="edge13" class="edge">
<title>ps_shivs2&#45;&gt;ps_prep</title>
<path fill="none" stroke="#94a3b8" stroke-width="2.5" d="M507.72,-303.41C507.72,-297.36 507.72,-290.91 507.72,-284.45"/>
<polygon fill="#94a3b8" stroke="#94a3b8" stroke-width="2.5" points="510.52,-284.31 507.72,-276.31 504.92,-284.31 510.52,-284.31"/>
</g>
<!-- ps_draw3 -->
<g id="node14" class="node">
<title>ps_draw3</title>
<path fill="#dbeafe" stroke="#2563eb" stroke-width="2" d="M691.22,-161C691.22,-161 448.22,-161 448.22,-161 442.22,-161 436.22,-155 436.22,-149 436.22,-149 436.22,-109 436.22,-109 436.22,-103 442.22,-97 448.22,-97 448.22,-97 691.22,-97 691.22,-97 697.22,-97 703.22,-103 703.22,-109 703.22,-109 703.22,-149 703.22,-149 703.22,-155 697.22,-161 691.22,-161"/>
<text text-anchor="start" x="453.72" y="-137.6" font-family="Noto Sans CJK SC, Helvetica, sans-serif" font-weight="bold" font-size="18.00" fill="#1e40af">⑧ 从3张牌的洗牌堆抽3张</text>
<text text-anchor="start" x="453.72" y="-113.2" font-family="Noto Sans CJK SC, Helvetica, sans-serif" font-weight="bold" font-size="16.00" fill="#166534">✅ 3张全部抽回——对手无法控制</text>
</g>
<!-- ps_prep&#45;&gt;ps_draw3 -->
<g id="edge14" class="edge">
<title>ps_prep&#45;&gt;ps_draw3</title>
<path fill="none" stroke="#94a3b8" stroke-width="2.5" d="M534.19,-187.87C538.25,-181.26 542.42,-174.47 546.41,-167.98"/>
<polygon fill="#94a3b8" stroke="#94a3b8" stroke-width="2.5" points="548.85,-169.35 550.65,-161.07 544.07,-166.42 548.85,-169.35"/>
</g>
<!-- ps_draw3&#45;&gt;loop -->
<g id="edge15" class="edge">
<title>ps_draw3&#45;&gt;loop</title>
<path fill="none" stroke="#94a3b8" stroke-width="2.5" d="M569.72,-96.85C569.72,-90.98 569.72,-84.74 569.72,-78.58"/>
<polygon fill="#94a3b8" stroke="#94a3b8" stroke-width="2.5" points="572.52,-78.27 569.72,-70.27 566.92,-78.27 572.52,-78.27"/>
</g>
<!-- loop&#45;&gt;anchor -->
<g id="edge16" class="edge">
<title>loop&#45;&gt;anchor</title>
<path fill="none" stroke="#16a34a" stroke-width="3" d="M749.22,-70.11C798.04,-84.57 837.72,-103.77 837.72,-128 837.72,-1094 837.72,-1094 837.72,-1094 837.72,-1125.93 817.57,-1152.45 793.01,-1172.91"/>
<polygon fill="#16a34a" stroke="#16a34a" stroke-width="3" points="791.18,-1170.79 786.68,-1177.98 794.68,-1175.16 791.18,-1170.79"/>
<text text-anchor="middle" x="865.22" y="-635.5" font-family="Noto Sans CJK SC, Helvetica, sans-serif" font-size="30.00" fill="#16a34a"> &#160;∞ &#160;</text>
</g>
</g>
</svg>
